<?xml version="1.0" standalone="no"?>
<!DOCTYPE svg PUBLIC "-//W3C//DTD SVG 20010904//EN"
 "http://www.w3.org/TR/2001/REC-SVG-20010904/DTD/svg10.dtd">
<svg version="1.0" xmlns="http://www.w3.org/2000/svg"
 width="2400.000000pt" height="2400.000000pt" viewBox="0 0 2400.000000 2400.000000"
 preserveAspectRatio="xMidYMid meet">

<g transform="translate(0.000000,2400.000000) scale(0.100000,-0.100000)"
fill="#000000" stroke="none">
<path d="M11480 23989 c-2652 -118 -5144 -1084 -7172 -2778 -1617 -1351 -2847
-3095 -3573 -5066 -804 -2183 -952 -4581 -424 -6867 586 -2538 2006 -4836
4024 -6511 1435 -1192 3109 -2026 4920 -2451 1306 -307 2686 -390 4050 -245
3076 326 5928 1859 7924 4259 939 1128 1666 2423 2132 3800 352 1038 544 2022
621 3185 16 249 16 1121 0 1370 -77 1163 -268 2146 -621 3185 -773 2282 -2241
4298 -4186 5750 -1826 1364 -3996 2177 -6255 2345 -463 34 -1011 43 -1440 24z
m6082 -7237 c134 -48 236 -139 299 -267 64 -130 74 -185 73 -380 l-1 -170
-557 -2620 c-306 -1441 -761 -3583 -1011 -4760 -256 -1203 -467 -2178 -484
-2227 -83 -246 -218 -404 -394 -460 -87 -28 -234 -28 -343 1 -110 28 -245 86
-318 136 -34 22 -715 523 -1515 1114 -799 590 -1458 1074 -1465 1077 -6 2
-342 -317 -746 -709 -804 -780 -865 -837 -945 -886 -128 -77 -309 -112 -469
-90 -87 11 -126 27 -169 68 -57 52 -3 -118 -678 2106 -280 924 -513 1683 -517
1686 -4 4 -693 221 -1532 483 -1110 348 -1550 489 -1616 521 -112 54 -184 110
-229 178 -133 201 18 436 400 623 79 38 1264 501 3025 1180 3233 1246 6324
2439 7420 2862 1298 501 1384 534 1445 548 84 19 253 12 327 -14z"/>
</g>
</svg>
